<svg fill="none" height="46" viewBox="0 0 36 46" width="36" xmlns="http://www.w3.org/2000/svg" xmlns:xlink="http://www.w3.org/1999/xlink"><linearGradient id="a" gradientUnits="userSpaceOnUse" x1="-.000001" x2="36" y1="23" y2="23"><stop offset="0" stop-color="#a78bfa"/><stop offset="1" stop-color="#8184f8"/></linearGradient><path d="m35 18h-15.883l1.876-16.89c.05-.449997-.209-.877997-.631-1.0419968-.423-.166-.902-.024-1.17.3419998l-19 25.999997c-.2220003.304-.2540004.707-.084 1.042.171.337.516.548.892.548h15.883l-1.876 16.89c-.05.45.209.878.631 1.042.118.046.24.068.362.068.312 0 .615-.146.808-.41l19-26c.222-.304.254-.707.084-1.042-.171-.337-.516-.548-.892-.548z" fill="url(#a)"/></svg>