<?xml version="1.0" standalone="no"?>
<!DOCTYPE svg PUBLIC "-//W3C//DTD SVG 20010904//EN"
 "http://www.w3.org/TR/2001/REC-SVG-20010904/DTD/svg10.dtd">
<svg version="1.0" xmlns="http://www.w3.org/2000/svg"
 width="544.000000pt" height="544.000000pt" viewBox="0 0 544.000000 544.000000"
 preserveAspectRatio="xMidYMid meet">
<metadata>
Created by potrace 1.11, written by Peter Selinger 2001-2013
</metadata>
<g transform="translate(0.000000,544.000000) scale(0.100000,-0.100000)"
fill="#000000" stroke="none">
<path d="M3007 5084 c-79 -41 -207 -69 -412 -89 -90 -9 -161 -17 -175 -20 -8
-1 -35 -6 -60 -10 -280 -44 -555 -242 -670 -483 -33 -70 -37 -74 -115 -119
-232 -133 -386 -258 -611 -497 -98 -105 -258 -346 -331 -501 -13 -27 -28 -58
-33 -68 -55 -97 -141 -376 -174 -567 -39 -226 -42 -542 -6 -750 5 -30 12 -69
15 -87 27 -163 107 -396 201 -589 226 -462 618 -847 1087 -1069 212 -100 422
-164 657 -201 161 -25 444 -29 620 -7 502 60 971 285 1338 638 306 296 530
679 636 1091 8 32 18 74 21 93 3 19 7 37 9 40 2 3 7 26 10 51 3 25 8 56 10 70
13 75 19 162 20 310 0 171 -10 313 -29 410 -3 14 -7 34 -9 45 -131 676 -556
1262 -1163 1602 -36 19 -67 43 -70 52 -43 140 -121 236 -301 374 -104 79 -101
73 -71 175 11 36 11 44 0 52 -13 8 -65 -5 -86 -21 -6 -4 -22 -10 -35 -13 -14
-3 -35 -8 -47 -12 -22 -6 -22 -5 -8 24 35 69 -7 75 -107 16 -32 -18 -58 -31
-58 -28 0 3 9 23 21 45 36 72 10 87 -74 43z"/>
</g>
</svg>
